/* XPM */
static char *charizard[] = {
/* columns rows colors chars-per-pixel */
"68 56 15 1 ",
"  c black",
". c #414141",
"X c #FF6239",
"o c #C5395A",
"O c #9C414A",
"+ c #CD6A6A",
"@ c #FFA452",
"# c #FFEE41",
"$ c #3973BD",
"% c #5A9CA4",
"& c #E6BD9C",
"* c #C5C5C5",
"= c #FFE6C5",
"- c white",
"; c None",
/* pixels */
";;;;;;;;;;;;;;;;;;;;;;;;;;;;;;;;;;;;;;;;;;;;;;;;;;;;;;;;;;;;;;;;;;;;",
";;;;;;;;;;;;;;;;;;;;;;;;;;;;;;;;;;;;;;;;;;;;;;;;;;;;;;;;;;;;;;;;;;;;",
";;;;;;;;;;;;;;;;;;;;;;;;;;;;;;;;;;;;;;;;;;;;;;;;;;;;;;;;;;;;;;;;;;;;",
";;;;;;;;;;;;;;;;;;;;;;;;;;;;;;;;;;;;;;;;;;;;;;;;;;;;;;;;;;;;;;;;;;;;",
";;;;;;;;;;;;;;;;;;;;;;;;;;;;;;;;;;;;;;;;;;;;;;;;;;;;;;;;;;;;;;;;;;;;",
";;;;;;;;;;;;;;;;;;;;;;;;;;;;;;;;;;;;;;;;;;;;;;;;;;;;;;;;;;;;;;;;;;;;",
";;;;;;;;;;;;;;;;;;;;;;;;;;;;;;;;;;;;;;;;;;;;;;;;;;;;;;;;;;;;;;;;;;;;",
";;;;;;;;;;;;;;;;;;;;;;;;;;;;;;;;;;;;;;;;;;;;;;;;;;;;;;;;;;;;;;;;;;;;",
";;;;;;;;;;;;;;;;;;;;;;;;;;;;;;;;;;;;;;;;;;;;;;;;;;;;;;;;;;;;;;;;;;;;",
";;;;;;;;;;;;;;;;;;;;;;;;;;;;;;;;;;;;;;;;;;;;;;;;;;;;;;;;;;;;;;;;;;;;",
";;;;;;;;;;;;;;;;;;;;;;;;;;;;;;;;;;;;;;;;;;;;;;;;;;;;;;;;;;;;;;;;;;;;",
";;;;;;;;;;;;;;;;;;;;;;;;;;;;;;;;;;;;;;;;;;;;;;;;;;;;;;;;;;;;;;;;;;;;",
";;;;;;;;;;;;;;;;;;;;;;;;;;;;;;;;;;;;;;;;;;;;;;;;;;;;;;;;;;;;;;;;;;;;",
";;;;;;;;;;;;;;;;;;;;;;;;;;;;;;;;;;;;;;;;;;;;;;;;;;;;;;;;;;;;;;;;;;;;",
";;;;;;;;;;;;;;;;;;;;;;;;;;;;;;;;;;;;;;;;;;;;;;;;;;;;;;;;;;;;;;;;;;;;",
";;;;;;;;;;;;;;;;;;;;;;;;;;;;;;;;;;;;;;;;;;;;;;;;;;; ;;;;;;;;;;;;;;;;",
";;;;;;;;;;;;;;;;;;;;;;;;;;;;;;;;;;;;;;;;;;;;;;;;;; X ;;;;;;;;;;;;;;;",
";;;;;;;;;;;;;;;;;;;;;;;;;;;;;;;;;;;;;;;;;;;;;;;;;; XX ;;;;;;;;;;;;;;",
";;;;;;;;;;;;;;;;;;;;;;;;;;;;;;;;;;;;;;;;;;;;;;;;; XXX ;;;;;;;;;;;;;;",
";;;;;;;;;;;;;;;;;;;;;;;;;;;;;;;;;;;;;;;;;;;;;;;; XXX ;;;;;;;;;;;;;;;",
";;;;;;;;;;;;;;;;;;;;;;;;;;;;;;;;;;;;;;;;;;;;;;;; X@X ; ;;;;;;;;;;;;;",
";;;;;;;;;;;;;;;;;;;; ;;;;;  ;;;;;;;;;;;;;;;;;;; XX#XX @ ;;;;;;;;;;;;",
";;;;;;;;;;;;;;;;;;; + ;;; OO  ;;;;;;;;;;;;;;;;; X#@XXX# ;;;;;;;;;;;;",
";;;;;;;;;;;;;;;;;;; + ;;;; OOO ;;;   ;;;;;;;;;; @#@XX@# ;;;;;;;;;;;;",
";;;;;;;;;;;;;;;;;; ++ ;;; @.OOO ; @@+ ;;;;;;;;; ###@## ;;;;;;;;;;;;;",
";;;;;;;;;;;;;;;;;; + ;;; @@.OOOO ; @@@ ;;;;;;;;; ##### ;;;;;;;;;;;;;",
";;;;;;;;;;;;;;;;; ++  ; @@. OOOO ;; O@@    ;;;;; #### ;;;;;;;;;;;;;;",
";;;;;;;;;;;;;;;;; +@@@ @@+ ; OOOO ;; +@@++@   ;;; @#@ ;;;;;;;;;;;;;;",
";;;;;;;;;;;;;;;; @@@@@@@@ ;;; OOOO ; +..@@+@@@ ;;; @ ;;;;;;;;;;;;;;;",
";;;;;;;;;;;;;;; @@@@@@@@@@  ; OOO O ++.$..@+@@@ ;; + ;;;;;;;;;;;;;;;",
";;;;;;;;;;;;;; @@@@@@@@@@@++ .OO ; ++.$$%%.@+@@@ ; ++ ;;;;;;;;;;;;;;",
";;;;;;;;;;;;;; @@@@@@++@@@++++.O ; +.$$$$%%.++@@ ;; + ;;;;;;;;;;;;;;",
";;;;;;;;;;;;;;; @@@@O-@@@++++++.O ++.$$$$$   @+@@ ; + ;;;;;;;;;;;;;;",
";;;;;;;;;;;;;;; @+@O --+++.++++@..+.$$$   ;;; @+@ ; ++ ;;;;;;;;;;;;;",
";;;;;;;;;;;;;; @@+@ %-++++  ++++@@...$ ;;;;;;; +@@ .++ ;;;;;;;;;;;;;",
";;;;;;;;;;;;; @@@@+O@++++ ;; +++@@@@@ ;;;;;;;; @+@..+++ ;;;;;;;;;;;;",
";;;;;;;;;;;; @@@@@@@++..+.  O.+++@@@@@  ;;;;;;; @+.++++ ;;;;;;;;;;;;",
";;;;;;;;;;;; @@O@@@+..oO+.OOO.+++@@.@@@. ;;;;;;; @+.+++ ;;;;;;;;;;;;",
";;;;;;;;;;;;; ++@+  .oO+.OO .+OO@@@@..@@@ ;;;;;;  @+.++ ;;;;;;;;;;;;",
";;;;;;;;;;;;;;    - ooO+.O ; O==OO@@@@.@@. ;;;; ++.@.+ ;;;;;;;;;;;;;",
";;;;;;;;;;;;;;;;;; -oO+.O ;; =====O@@@.@@.+    O+++.++ ;;;;;;;;;;;;;",
";;;;;;;;;;;;;;;;;; .+- O* ;; ======O..@@.+++.OOOO+O++ ;;;;;;;;;;;;;;",
";;;;;;;;;;;;;;;;;;;   ;  ;; +.=====.+O@@.@++.OOO+O+O ;;;;;;;;;;;;;;;",
";;;;;;;;;;;;;;;;;;;;;;;;;; ++.=====.O@+@.@@++.OOO+& ;;;;;;;;;;;;;;;;",
";;;;;;;;;;;;;;;;;;;;;;;;;; +++.&==&&.-.-.@@@+.&&&  ;;;;;;;;;;;;;;;;;",
";;;;;;;;;;;;;;;;;;;;;;;;;; ++++.&&&&&.@.@@@++.   ;;;;;;;;;;;;;;;;;;;",
";;;;;;;;;;;;;;;;;;;;;;;;;;; ++++..&&&.@@@@@++ ;;;;;;;;;;;;;;;;;;;;;;",
";;;;;;;;;;;;;;;;;;;;;;;;;;;; O++++.   +@@O++ ;;;;;;;;;;;;;;;;;;;;;;;",
";;;;;;;;;;;;;;;;;;;;;;;;;;; ++OOO  ;; ++++++ ;;;;;;;;;;;;;;;;;;;;;;;",
";;;;;;;;;;;;;;;;;;;;;;;;;; -.-++ ;;;;; ++++++ ;;;;;;;;;;;;;;;;;;;;;;",
";;;;;;;;;;;;;;;;;;;;;;;;;;;     ;;;;;;; +++++ ;;;;;;;;;;;;;;;;;;;;;;",
";;;;;;;;;;;;;;;;;;;;;;;;;;;;;;;;;;;;;; -OO++ ;;;;;;;;;;;;;;;;;;;;;;;",
";;;;;;;;;;;;;;;;;;;;;;;;;;;;;;;;;;;;;;; .-.- ;;;;;;;;;;;;;;;;;;;;;;;",
";;;;;;;;;;;;;;;;;;;;;;;;;;;;;;;;;;;;;;;;    ;;;;;;;;;;;;;;;;;;;;;;;;",
";;;;;;;;;;;;;;;;;;;;;;;;;;;;;;;;;;;;;;;;;;;;;;;;;;;;;;;;;;;;;;;;;;;;",
";;;;;;;;;;;;;;;;;;;;;;;;;;;;;;;;;;;;;;;;;;;;;;;;;;;;;;;;;;;;;;;;;;;;"
};
