/* XPM */
static char *barriere[] = {
/* columns rows colors chars-per-pixel */
"50 50 72 1 ",
"  c black",
". c #080605",
"X c gray11",
"o c #371C0D",
"O c #003B0A",
"+ c #24201F",
"@ c #322E2D",
"# c #353333",
"$ c #3A3A3A",
"% c #3E3E3E",
"& c #472513",
"* c #492714",
"= c #4F2A16",
"- c #502B17",
"; c #512B17",
": c #522C17",
"> c #512C18",
", c #532D18",
"< c #542D18",
"1 c #542D19",
"2 c #552E19",
"3 c #483616",
"4 c #5F331B",
"5 c #00410C",
"6 c #004B0F",
"7 c #004E10",
"8 c #0F4C10",
"9 c #005312",
"0 c #005613",
"q c #005713",
"w c #095212",
"e c #005A14",
"r c #095914",
"t c #0F5814",
"y c #215515",
"u c #006D32",
"i c #007134",
"p c #007737",
"a c #007835",
"s c #007939",
"d c #077938",
"f c #007C38",
"g c #007F3C",
"h c #217939",
"j c #3E7B3A",
"k c #7C4223",
"l c #434343",
"z c #894927",
"x c #894928",
"c c #8A4A28",
"v c #8B4A28",
"b c #8C4B29",
"n c #8D4C29",
"m c #934F2B",
"M c #00B30F",
"N c #00B410",
"B c #00B910",
"V c #00813C",
"C c #00823D",
"Z c #00C211",
"A c #00C612",
"S c #00C614",
"D c #09C212",
"F c #00C812",
"G c #00CC13",
"H c #00CD13",
"J c #00C814",
"K c #00C91F",
"L c #00D013",
"P c #00D214",
"I c #00D414",
"U c #21C415",
/* pixels */
"Ca9eeeeOeeeeeCCCCeeeee0CCCCCKIISeeeee9eeee0eeee9CC",
"Cf6eeee5eeee0CCCCeeeee9CCCCuKPIS6eeee9eeee0eeee9CC",
"0009999666660usfC07776efpssassfCe00099909e09099e9e",
"ee6CCCCfCCCCaCCCCLLLIIACCCCuCCCCsCCCCALILILLIIL9ee",
"ee6CCCCsCCCCsCCCCAIIIIBCCCCuCCCCuCCCCAIIIIAIIII9ee",
"ee9CCCCsCCCCsCCCCAIIIIMCCCCsCCCCsCCCCHIIIIFIIII9ee",
"ee9CCCCuCChhdCCCCALSSJNCCCCaCCCCaCCCCHIIIIHIIII9ee",
"99e999e:==&*:fffse06670CsssCsassCssas1::;=:DZALe60",
"CC9eeey&1111=CCCp6eeee6CCCCsCCCCaIIII&2211&UIIIAVC",
"CC9eeey&11:4=CCCC9eeee6CCCCsCCCCaIIII&2211&UIIIPCC",
"CC9eeey&2211=CCCC0eeee9CCCCfCCCCVIIII&1222&UIIIMCC",
"CC9eeey*2221=CCCC0eeee9CCCCfCCCCfIIII&1122&UIIIICC",
"ia::==;::::=,=:==:0909e96670uuuC<==:=:::::::===1aa",
"CC;111,*1:22=1221;CCCC9eeee9CCCC:1121&:211&1222=CC",
"CC;1112*1222=2221=CCCC0eeee9CCCC=1112*2221&1222=CC",
"CC;1112*2222=1221;CCCC6eeee9CCCC:221,*2221*2222=CC",
"Ch,2222,2221=11<1<CCCC0eeee0CCCC=,122&,122*2222=CC",
"mvzzzzzvzzzzzzzzzbvvzbbzzzzzzzzm=,&==,,===,*&&:=bb",
"mmkmmmmvmmmmnmmmmmmmmmbmmmmmmmmm=2222&2222&1222=mm",
"mmkmmmmkmmmmkmmmmzmmmmzmmmmzmmmm=2222&2221&1222=mm",
"mmzmmmmkmmmmkmmmmzmmmmzmmmmzmmmm=222*&2222&2222=mm",
"mmzmmm+l$mmmkmmmmkmmmmzmmmmzmmmm=122 %@222&1222=mm",
"mzmzzz +#zzzmzzzbbkkkkmkkkknkkkz=,=: #%=:=::&*:=zz",
"mmzmmm   mmmzmmmmkmmmmzmmmmzmmmm,112 .X211*1221=mm",
"mmzmmmmzmmmmzmmmmkmmmmzmmmmzmmmm:2222=2211*111<=mm",
"mmzmmmmzmmmmzmmmmkmmmmzmmmmnmmmm=2222=221:*1211;mm",
"mmmmmmmmmmmmmmmmmmmmmmmmmmmnmmmm:1222:1222*,22<4mm",
"nzzzzzzzzzzzzzbzzzzzzzzzzzzzzzzm=:&&=:==;<:=:::4mb",
"CC2211212222<222<;eeee0eeeeeeeee=222<=22:2*<222:Cj",
"CC=2111:2222<2211;eeee9eeee6eeee=2221:2211*1112<CC",
"CC=2221=2211;<11:;eeee0eeee6eeee=2222:2221&<111=CC",
"CC=2222=221<:<111;eeee9eeee6eeee=221<=222<*1111;CC",
"e0=;===1====1===13e999e999606660;;&&&:&===:::=:=6e",
"ee:1222=2222=2221=eeee9eeee9eeee;<111:2222&2122=ee",
"ee;<222=2222=2221;eeee9eeee9eeee:2112=2222&2222=ee",
"ee=1222=2222=2221=eeee6eeee9eeee:2112=2222&2222=ee",
"ee=1222=2222=2221=eeee6eeee9eeee:1112:22,,*2222=ee",
"66::===,====1===<3e99000996e666e::=:=:=&&&,*&&*:99",
"ee=2222=2222=2221:CCCa6eeee9eeee;1221=1222&222:,ee",
"ee:1222=2222=2221=CCCf6eeee9eeee=:222:1222&2222=ee",
"ee:2221=2222=2221=CCCf7eeee9eeee=2222=2222&1222:ee",
"et*2222&2222=2221=CCCf6eeee9eeee=2222=2222&,22,,ee",
"58*,==:,====1===1:pisae0666e9999=1===1====,,&&,=09",
"et&2222&2222=2221=VCCf6eeee9eeee=2222=2222&211,=ee",
"et&1222&2222=2221;CCCf6eeee9eeee=2222=2222&2222:ee",
"et*2222&2222=2221=CCCa6eeee9eeee=2222=2222&12213ee",
"er&1221*2222:2221;CCCf6eeee0eeee=1222=2222*12213ee",
"6w&&&&*:&&&&:&&o;=e09e09999099ee=,:==1===&,*&&&3ee",
"Ch*2222*2222,2222=eeee6CCCCLIIII=2222:1222=2222=CC",
"Ch:222222222,2222,eeeeeCCCCMIIII,2222,2222,12221CC"
};
