/* XPM */
static char *charizard[] = {
/* columns rows colors chars-per-pixel */
"50 41 207 2 ",
"   c #030405",
".  c #0C0708",
"X  c #0B090A",
"o  c #0C0506",
"O  c #180A09",
"+  c #191109",
"@  c #131205",
"#  c #1C1212",
"$  c #161410",
"%  c #220E10",
"&  c #251314",
"*  c #2A1516",
"=  c #2E1818",
"-  c #36191B",
";  c #351A0D",
":  c #3C2417",
">  c #2F2A0D",
",  c #0C192B",
"<  c #2F1D21",
"1  c #3D1D20",
"2  c #2E2B27",
"3  c #3F2020",
"4  c #393536",
"5  c #23373B",
"6  c #411B1F",
"7  c #4E1D11",
"8  c #432C15",
"9  c #42251C",
"0  c #5B3B1D",
"q  c #55351B",
"w  c #602415",
"e  c #603E1F",
"r  c #481E22",
"t  c #422222",
"y  c #4A2526",
"u  c #4A2B2A",
"i  c #5D252C",
"p  c #532B2C",
"a  c #562929",
"s  c #483429",
"d  c #473636",
"f  c #5E3131",
"g  c #5C3C3C",
"h  c #60282D",
"j  c #653D28",
"k  c #663635",
"l  c #76383A",
"z  c #662A30",
"x  c #555015",
"c  c #584332",
"v  c #6B4522",
"b  c #674028",
"n  c #63483F",
"m  c #794636",
"M  c #766920",
"N  c #423F40",
"B  c #573F40",
"V  c #2E4A6F",
"C  c #534F4F",
"Z  c #4E5151",
"A  c #694344",
"S  c #66484A",
"D  c #7D4141",
"F  c #724A4C",
"G  c #774548",
"H  c #625043",
"J  c #7B574B",
"K  c #7B4F50",
"L  c #645C5C",
"P  c #6C5653",
"I  c #7D5957",
"U  c #7B665A",
"Y  c #40516C",
"T  c #515770",
"R  c #5A6570",
"E  c #746B6B",
"W  c #802F1C",
"Q  c #82321D",
"!  c #AC3E26",
"~  c #83552A",
"^  c #8B5A2D",
"/  c #AF532A",
"(  c #A84025",
")  c #9B6F2F",
"_  c #A96A3A",
"`  c #B47338",
"'  c #D1502F",
"]  c #D85933",
"[  c #F15935",
"{  c #FF6E3E",
"}  c #933D46",
"|  c #993E50",
" . c #883941",
".. c #A23A53",
"X. c #8C4849",
"o. c #854749",
"O. c #934A4C",
"+. c #9E444C",
"@. c #89544B",
"#. c #9A4F50",
"$. c #835355",
"%. c #8B5857",
"&. c #935353",
"*. c #925A54",
"=. c #9A5757",
"-. c #95514C",
";. c #A1434C",
":. c #AD4F55",
">. c #A25B5C",
",. c #A85858",
"<. c #B55C5E",
"1. c #B5575C",
"2. c #AD5250",
"3. c #87694D",
"4. c #946D49",
"5. c #986E49",
"6. c #9F714A",
"7. c #9F6159",
"8. c #81745E",
"9. c #A96C48",
"0. c #A8764C",
"q. c #BA7645",
"w. c #B16B5B",
"e. c #937669",
"r. c #9A7A75",
"t. c #87776F",
"y. c #AC6161",
"u. c #B16162",
"i. c #BD6869",
"p. c #AC7E6D",
"a. c #A16E71",
"s. c #CD6F55",
"d. c #CD7B53",
"f. c #C57D54",
"g. c #D37A54",
"h. c #D57B58",
"j. c #D57A4D",
"k. c #C04960",
"l. c #C46869",
"z. c #CD6B6A",
"x. c #C76865",
"c. c #D26C6C",
"v. c #CD7062",
"b. c #D47465",
"n. c #D67865",
"m. c #E27F63",
"M. c #AF9031",
"N. c #BAA831",
"B. c #EE873C",
"V. c #DDB13E",
"C. c #E6CC3D",
"Z. c #ECE03C",
"A. c #9A8778",
"S. c #AD8878",
"D. c #C6874D",
"F. c #C8884B",
"G. c #DB8D46",
"H. c #D18444",
"J. c #DB924D",
"K. c #D6924F",
"L. c #C58952",
"P. c #DF8354",
"I. c #D98855",
"U. c #EB8F4D",
"Y. c #E5964A",
"T. c #FF9941",
"R. c #E2875B",
"E. c #E98C59",
"W. c #EC9354",
"Q. c #EE9655",
"!. c #F49C52",
"~. c #F1935A",
"^. c #F99B58",
"/. c #FF8944",
"(. c #FFA147",
"). c #F5A050",
"_. c #FEA452",
"`. c #FFA853",
"'. c #CD826A",
"]. c #F29060",
"[. c #EC9D76",
"{. c #FFC846",
"}. c #FFE645",
"|. c #FEEC44",
" X c #3E76A0",
".X c #3872BB",
"XX c #3870B6",
"oX c #376BAB",
"OX c #AA7E88",
"+X c #528B95",
"@X c #4380B1",
"#X c #B49A83",
"$X c #BAA193",
"%X c #9FA0A4",
"&X c #D38B85",
"*X c #D9AC99",
"=X c #C7B79F",
"-X c #E4BD9C",
";X c #C5B1A4",
":X c #E5C6A7",
">X c #F1D0B5",
",X c #E3D0B3",
"<X c #FBDACB",
"1X c #FDE5C4",
"2X c #FFEAC8",
"3X c #FFE8C7",
"4X c None",
/* pixels */
"4X4X4X4X4X4X4X4X4X4X4X4X4X4X4X4X4X4X4X4X4X4X4X4X4X4X4X4X4X4X4X4X4X4X4X4X4X4X4X4X4X4X4X4X4X4X4X4X4X4X",
"4X4X4X4X4X4X4X4X4X4X4X4X4X4X4X4X4X4X4X4X4X4X4X4X4X4X4X4X4X4X4X4X4X4X4X4X4X4X4X4X4X4X4X4X4X4X4X4X4X4X",
"4X4X4X4X4X4X4X4X4X4X4X4X4X4X4X4X4X4X4X4X4X4X4X4X4X4X4X4X4X4X4X4X4X4X4X4X4X4X4X4X4X4X4X4X4X4X4X4X4X4X",
"4X4X4X4X4X4X4X4X4X4X4X4X4X4X4X4X4X4X4X4X4X4X4X4X4X4X4X4X4X4X4X4X4X4X4X4X4X4X4X4X4X4X4X4X4X4X4X4X4X4X",
"4X4X4X4X4X4X4X4X4X4X4X4X4X4X4X4X4X4X4X4X4X4X4X4X4X4X4X4X4X4X4X4X4X4X4X4X4X4X4X4X4X4X4X4X4X4X4X4X4X4X",
"4X4X4X4X4X4X4X4X4X4X4X4X4X4X4X4X4X4X4X4X4X4X4X4X4X4X4X4X4X4X4X4X4X4X4X4X4X4X4X4X4X4X4X4X4X4X4X4X4X4X",
"4X4X4X4X4X4X4X4X4X4X4X4X4X4X4X4X4X4X4X4X4X4X4X4X4X4X4X4X4X4X4X4X4X4X4X4X4X4X4X4X4X4X4X4X4X4X4X4X4X4X",
"4X4X4X4X4X4X4X4X4X4X4X4X4X4X4X4X4X4X4X4X4X4X4X4X4X4X4X4X4X4X4X4X4X4X4X4X4X4X4X4X4X4X4X4X4X4X4X4X4X4X",
"4X4X4X4X4X4X4X4X4X4X4X4X4X4X4X4X4X4X4X4X4X4X4X4X4X4X4X4X4X4X4X4X4X4X4X4X4X4X4X4X4X4X4X4X4X4X4X4X4X4X",
"4X4X4X4X4X4X4X4X4X4X4X4X4X4X4X4X4X4X4X4X4X4X4X4X4X4X4X4X4X4X4X4X4X4X4X4X4X4X4X4X4X4X4X4X4X4X4X4X4X4X",
"4X4X4X4X4X4X4X4X4X4X4X4X4X4X4X4X4X4X4X4X4X4X4X4X4X4X4X4X4X4X4X4X4X4X4X4X4X4X4X4X4X4X4X4X4X4X4X4X4X4X",
"4X4X4X4X4X4X4X4X4X4X4X4X4X4X4X4X4X4X4X4X4X4X4X4X4X4X4X4X4X4X4X4X4X4X4X4X4X; 4X4X4X4X4X4X4X4X4X4X4X4X",
"4X4X4X4X4X4X4X4X4X4X4X4X4X4X4X4X4X4X4X4X4X4X4X4X4X4X4X4X4X4X4X4X4X4X4X4X4XQ ( 4X4X4X4X4X4X4X4X4X4X4X",
"4X4X4X4X4X4X4X4X4X4X4X4X4X4X4X4X4X4X4X4X4X4X4X4X4X4X4X4X4X4X4X4X4X4X4X4Xw [ ' O 4X4X4X4X4X4X4X4X4X4X",
"4X4X4X4X4X4X4X4X4X4X4X4X4X4X4X4X4X4X4X4X4X4X4X4X4X4X4X4X4X4X4X4X4X4X4XO ] { 7 4X4X4X4X4X4X4X4X4X4X4X",
"4X4X4X4X4X4X4X4X4X4X4X4X4X4X4X4X4X4X4Xo 4X4X4X4X4X4X4X4X4X4X4X4X4X4X4XW B.T.( q 0 4X4X4X4X4X4X4X4X4X",
"4X4X4X4X4X4X4X4X4X4X4X4X4X4X9 a 4X4X4Xi i & 4X4X4X4X4X4X4X4X4X4X4X4X4X/ {./.{ B.M 4X4X4X4X4X4X4X4X4X",
"4X4X4X4X4X4X4X4X4X4X4X4X4X4XD f 4X4X4Xb  .} r 4X4Xv j & 4X4X4X4X4X4X4XM.}.(.T.V.x 4X4X4X4X4X4X4X4X4X",
"4X4X4X4X4X4X4X4X4X4X4X4X4X= -.& 4X4X~ F.A | } - 4X^ Q._ 4X4X4X4X4X4X4Xx Z.}.|.M.4X4X4X4X4X4X4X4X4X4X",
"4X4X4X4X4X4X4X4X4X4X4X4X4XX.2.8 4X~ W.c r } ;.z 4X4Xa R.` 9 : : 4X4X4X@ N.|.C.> 4X4X4X4X4X4X4X4X4X4X",
"4X4X4X4X4X4X4X4X4X4X4X4Xq d.`.!._ _.9.4X4X6 } | z 4X  O.0.f.E.q.m v 4X4X> F.) 4X4X4X4X4X4X4X4X4X4X4X",
"4X4X4X4X4X4X4X4X4X4X4X0 G.`._.`.`.`.H.: 4X.  .} a r k 1.Y R 3.R.^.).~ 4X4Xk p 4X4X4X4X4X4X4X4X4X4X4X",
"4X4X4X4X4X4X4X4X4X4X+ G.`._.`.^.Q._._.s.X.g o.i 4Xr y.T XX@X+X8.b.~.).q 4Xa #.O 4X4X4X4X4X4X4X4X4X4X",
"4X4X4X4X4X4X4X4X4X4X4X^ _.`.U.&X[._.E.c.z.z.%.k = o.$.oX.X.X X5 u d.~.` 4X4XD % 4X4X4X4X4X4X4X4X4X4X",
"4X4X4X4X4X4X4X4X4X4X4Xe E.W.m %X<Xn.x.F <.c.b.9.n &.Y XXV , , 4X4Xb d.E.8   #.m 4X4X4X4X4X4X4X4X4X4X",
"4X4X4X4X4X4X4X4X4X4Xe Y.~.g.n ;X&Xz.#.# y <.c.R.!.5.3.V 4X4X4X4X4X4Xj ].D.2 y.,.- 4X4X4X4X4X4X4X4X4X",
"4X4X4X4X4X4X4X4X4X0 Y.^._.~.P.v.$.=.A X - G l.b.!._._.` + 4X4X4X4X4X: q.w.P x.c.k 4X4X4X4X4X4X4X4X4X",
"4X4X4X4X4X4X4X4X4Xb W.h._.j.@.S | :.K l l F <.x.^.K.0.K.q.s 4X4X4X4X4X; _ 7.>.c.f 4X4X4X4X4X4X4X4X4X",
"4X4X4X4X4X4X4X4X4X4Xf m ~ L < | :.=.G i # o.&X'.j.!.D.5.D.!.s 4X4X4X4Xy G q.J ,.t 4X4X4X4X4X4X4X4X4X",
"4X4X4X4X4X4X4X4X4X4X4X4X4XC OXk.:.K p 4X4Xe.2X,X*XI.!.K.4.).J k X O 6 1.l.7.7.D 4X4X4X4X4X4X4X4X4X4X",
"4X4X4X4X4X4X4X4X4X4X4X4X4XX B OXN F N 4X& A.1X3X2X*X@.J !.6.w.x.A l } :.<.1.O.* 4X4X4X4X4X4X4X4X4X4X",
"4X4X4X4X4X4X4X4X4X4X4X4X4X4X4X4X4X4X4X& O.I ,X2X2X=XG s.~.5.K.n.>.G +.:.i.*.% 4X4X4X4X4X4X4X4X4X4X4X",
"4X4X4X4X4X4X4X4X4X4X4X4X4X4X4X4X4X4X4X= z.u.r.:X1X-Xe.$XS.A.K.).b.P S.p.s 2 4X4X4X4X4X4X4X4X4X4X4X4X",
"4X4X4X4X4X4X4X4X4X4X4X4X4X4X4X4X4X4X4X* ,.c.u.e.#X-X-X8.D.L.`.E.z.4 $ + 4X4X4X4X4X4X4X4X4X4X4X4X4X4X",
"4X4X4X4X4X4X4X4X4X4X4X4X4X4X4X4X4X4X4X4X- +.x.u.%.U H s R._.g.n.o.4X4X4X4X4X4X4X4X4X4X4X4X4X4X4X4X4X",
"4X4X4X4X4X4X4X4X4X4X4X4X4X4X4X4X4X4X4X4XC i.1.;.y X 4X# 1.b.l.c.f 4X4X4X4X4X4X4X4X4X4X4X4X4X4X4X4X4X",
"4X4X4X4X4X4X4X4X4X4X4X4X4X4X4X4X4X4X4X4 L E K p 4X4X4X4X3 ,.c.c.<.& 4X4X4X4X4X4X4X4X4X4X4X4X4X4X4X4X",
"4X4X4X4X4X4X4X4X4X4X4X4X4X4X4X4X4X4X4X4X4X4X4X4X4X4X4X4XZ a.u.c.D 4X4X4X4X4X4X4X4X4X4X4X4X4X4X4X4X4X",
"4X4X4X4X4X4X4X4X4X4X4X4X4X4X4X4X4X4X4X4X4X4X4X4X4X4X4X4X4X4 t.E C 4X4X4X4X4X4X4X4X4X4X4X4X4X4X4X4X4X",
"4X4X4X4X4X4X4X4X4X4X4X4X4X4X4X4X4X4X4X4X4X4X4X4X4X4X4X4X4X4XX   4X4X4X4X4X4X4X4X4X4X4X4X4X4X4X4X4X4X",
"4X4X4X4X4X4X4X4X4X4X4X4X4X4X4X4X4X4X4X4X4X4X4X4X4X4X4X4X4X4X4X4X4X4X4X4X4X4X4X4X4X4X4X4X4X4X4X4X4X4X"
};
