/* XPM */
static char *coins[] = {
/* columns rows colors chars-per-pixel */
"50 50 76 1 ",
"  c #003B0A",
". c #00410C",
"X c #004B0F",
"o c #004D10",
"O c #004D1A",
"+ c #005011",
"@ c #005312",
"# c #005412",
"$ c #005613",
"% c #005813",
"& c #005A14",
"* c #00571C",
"= c #005E1D",
"- c #00611E",
"; c #006D32",
": c #007330",
"> c #007134",
", c #007536",
"< c #007A37",
"1 c #007C37",
"2 c #007938",
"3 c #007A39",
"4 c #007C38",
"5 c #007E3B",
"6 c #5D6C12",
"7 c #91220F",
"8 c #B32D15",
"9 c #B92F16",
"0 c #C63318",
"q c #C83319",
"w c #CA3419",
"e c #CC341A",
"r c #CC351A",
"t c #D0361A",
"y c #D2361B",
"u c #D4371B",
"i c #B95312",
"p c #917200",
"a c #C85615",
"s c #D25718",
"d c #00910A",
"f c #00B30F",
"g c #00B515",
"h c #00B910",
"j c #00B914",
"k c #00813C",
"l c #00823D",
"z c #00843C",
"x c #009438",
"c c #00A035",
"v c #00C212",
"b c #00C612",
"n c #00C114",
"m c #00C614",
"M c #00C812",
"N c #00CC13",
"B c #00CA14",
"V c #00D013",
"C c #00D414",
"Z c #B38E00",
"A c #B99300",
"S c #BE9600",
"D c #C29A00",
"F c #C59C00",
"G c #C69C00",
"H c #C89E00",
"J c #D49E05",
"K c #D49C06",
"L c #D4910B",
"P c #CCA100",
"I c #CCA200",
"U c #D4A103",
"Y c #D0A400",
"T c #D3A700",
"R c #D4A402",
"E c #D4A800",
/* pixels */
"l4#&&&&&&&&&@llll#&&&&#llllgCCCC@&&&& &&&&#&&&&&ll",
"ll@&&&&X&&&&#llllX&&&&%lllcMCCCC#&&&&o&&&&.&&&&#4l",
"%#&@@@@%@@oo=3333X#&#&&@#@@&bMbb            o@#&#%",
"&&@&&&&@llll3llllo&&&&#&&&&olkkkdCCCCMCCCChlllz#&&",
"&%@&&&&@llll3llllX&&&&#&&&%XllllfCCCCbCCCCMzll4X&&",
"&%@&&&&@llll3llllX&&&&#&&&&XllllhCCCCMCCCCNzll4X&&",
"&&#&&&&%llll,llllX&&&&#&&&%XllllBCCNCvCCCCbxll4%&&",
"&%%#@oo@43<3l;;;;@.   OOOO**3<3l#XoXo#bChb#@##@%#&",
"ll;llll3llll3lllllllllllzll3llll@&&&&@CCCBo&&&&#z4",
"ll;llll;llll3llll,llll3llll;llll#&&&&@CCCmX&&&&#ll",
"ll3llll;llll3llll3llll>llll<lll3o&&&&@CCCmX&&&&#ll",
"lllllll>llll4ll<34llll4llllllll4#&&&&#mmmj@&&&&#ll",
"4l&@@@@#,,;;&#@@@YZZZZZZZZZZZZZAH&oXX&XXXo&XXXo#l;",
"ll@&&&&@llllX&&&&HETEEITEEEHEEEEAllll&&&&&XCCCCdll",
"ll@&&&&@llll#&&&&GEEEEGEEEEGEEEEZllll#&&&&XCCCCgll",
"ll@&&&&@llll@&&&&GEEEEIEEEEHEEEEZllll&&&&&oCCCCnll",
"ll@&&&&@llll@&&&6ZLKKKIUUTUHKKKKZllll&&&&&@CCCCnll",
"33@@@@@&##o#YHGHHTw888888888888iYHGGHY@@@@#@@@@-4l",
"ll@&&&&@&&&&ZTEEE8uuuu8uuuuquuuurEEEEZ&&&&&&&&&ozl",
"ll@&&&&@&&&&ZTEEE8uuuu8uuuuquuuu0EEEEZ&&&&@&&&&#ll",
"ll@&&&&@&&&&ZTEEE8uuuuruuuu0uuuu0EEEEZ&&&&@&&&&#ll",
"ll@&&&&@&&&&ZTEEE8uuuuruuuu8uuuuwYEEEZ&&&&#&&&&#44",
"#@&@@@@&@@#&ZAZHY8r889t000wa00wuGAHIIZ####&oXXX#oo",
"&&@&&&&@&&&&HTTEE8uuuu8EEEEIEEEEIETEEZlllllllll@&&",
"&&@&&&&@&&&&GTEEE0uuuu8EEEEDEEEEIYEEEZllll3llll@&&",
"&&@&&&&@&&&&HEETE0uuuu8EEEEGEEEEAEEEEZllll3llll#&&",
"&&@&&&&@&&&&GTTTE0uuuurKKKESEEEEZEEEEZzlll3llllo&&",
"%o&oXXo@XXX&GZZHY0008wr888000888YHGGYAl;;;43335#o#",
"ll@&&&&@&&&&GEEEE0uuuutuuuu8uuuutEEETZllll;llll<ll",
"ll@&&&&@&&&&GEEEEwuuuu0uuuu8uuuuqEEETZllll;llll3ll",
"ll@&&&&@&&&&GEEEE0uuuu0uuuu9uuuu8EEETZllll;llll3ll",
"ll@&&&&@&&&&GEEEEsuuuu0uuuu0uuuu7EEEEAllll;lllllll",
"##&#@@@&@Xo#YHGZZY8888888880q0qtYGGGAI3<3<####oXX#",
"&&#&&&&@&&&&&&&&&GEEEEYEEEEYEEEEH&&&&#<lllX&&&&o&&",
"&&@&&&&@&&&&@&&&&GEEEEHEEEEGEEEEG&&&&X1lllX&&&&X&&",
"&&o&&&&@&&&&@&&&&GEEEEGEEEEGEEEEG&&&&X4lllX%&&&X&&",
"&&X&&&&@&&&&@&&&&HEEEEYEEETATEEEI&&&&o,<44o&&&&X&&",
"#@%#@@@&@@@@&XXo&YZZZZAZZZZZZpppI@ooo@oXXo#oX###@&",
"&&ollll@&&&&@4444#&&&&#&&&&&llll@&&&&X&&&&X&&&&o&&",
"&&Xllll@&&&&@llll&&&&&@&&&&@llll#&&&&X&&&&X&&&&X&&",
"&&Xllll@&&&&@llll#&&&&@&&&&#llll#&&&&X&&&&#&&&&X&&",
"&&Xllll#&&&&#444:@&&&&#&&&&#444:o&&&&o&&&&#&&&&o&&",
"%#%@@@#&XXXX%XXXo#XXoo#ooXX#ooX##oXXX#ooXX%XXXX#@#",
"&&Xlll4Xllll@&&&&X&&&&#&&&&@&&&&X&&&&o4lll#&&&&o&&",
"&&Xlll3Xllll@&&&&X&&&&@&&&&@&&&&X&&&&X1lll@&&&&X&&",
"&&Xlll1Xllll@&&&&X&&&&@&&&&@&&&&X&&&#X4zll@&&&&#&&",
"&&Xllll@llll@&&&&o&&&&@&&&&#%&&##&&&&@,444#&&&&#&&",
"%#%@@@@&@@@@&@@@##@@@@&@@@@&%%%@%XXXX%XXXX%XXXX%X%",
"l1X&&&&#&&&&#lll:X&&&&#zlllCCCCC&&&&&X&&&&#&&&&#ll",
"l<#%&&&%&&&&%lll>X&%&&%lllxhCCCCX&&&&X&&&&%&&&&%ll"
};
