/* XPM */
static char *exit[] = {
/* columns rows colors chars-per-pixel */
"50 50 56 1 ",
"  c #000100",
". c #030101",
"X c #020302",
"o c #000700",
"O c #030403",
"+ c #040404",
"@ c #0C0301",
"# c #000800",
"$ c #140702",
"% c #311709",
"& c #351909",
"* c #3B1C0C",
"= c #613318",
"- c #005A14",
"; c #015A14",
": c #035A15",
"> c #035A16",
", c #045A16",
"< c #055A16",
"1 c #085917",
"2 c #095918",
"3 c #0F591A",
"4 c #195516",
"5 c #16571A",
"6 c #036315",
"7 c #007734",
"8 c #0B7232",
"9 c #0D7636",
"0 c #007C38",
"q c #0F7B3A",
"w c #097E3B",
"e c #0D7C3A",
"r c #0E7C3A",
"t c #1F7437",
"y c #187B3A",
"u c #9B1833",
"i c #A61436",
"p c #8D2B31",
"a c #942833",
"s c #972934",
"d c #00823D",
"f c #05803C",
"g c #00843C",
"h c #009239",
"j c #00BD27",
"k c #02B52B",
"l c #01B62B",
"z c #0FC31A",
"x c #00CF1A",
"c c #00CB1E",
"v c #02D215",
"b c #00D316",
"n c #00D414",
"m c #00C621",
"M c #36D03A",
"N c white",
/* pixels */
"d0 ---- ---- dddd ---- ddddobbbbo---- ---- <--- 0d",
"q9 3333 3333 qeqq 3333 qee9ozzzzo<--- <<<< -333 9e",
"       #ooo## o o        O ooo##o    ######       ",
"-- ----#nnbnodddd dddd ddddoddddoddddocxbb#gdd7 --",
"-- ----onnnn#dddd ddddodddd dddd dddd#jjnn#dddd --",
"-- ----onbnnoddgd dddd+ddddodddd dddd#bvnn#gddd --",
"-< 2321ozzzzoqqqq dfff 99qq ffffoqqqq#bkkn#qqqq -<",
"       #oooo###########         ################  ",
"-- ---- dddd#bnnn#nnbbo---- ----#bmmn#nnbmonnbb#--",
"-- ---- dddd#nnnn#nnvbo---- ----#nmmb#nnnmonnhbo--",
"-- ---- dddd#bnbnonnnno---- ----#bvbcobvnnovnnvo--",
"-3 3333 q988#zzzzozzzzo-3<3 333-#bbbb#bbvv#vvvbo6<",
"            #o######oo#         ############oooo  ",
"dd dddd ----#bnnb#==== ==== ==== NNNN ddddodddd+dd",
"dd dddd ----obnnbo==== ==== ==== NNNN dddd dddd dd",
"ddodddd ----obnnbo==== ==== ==== NNNN dddd ddddodd",
"qq qqqq 5533ozzzz#==== ==== ==== NNNN qqqq eeqq+ww",
" O oo  O O   ooo##            o+           o  o X ",
"dd dddd iiiuO==== ==== ====o==== ==== NNNN dddd dd",
"dd dddd iiiu ==== ==== ==== ====o==== NNNN ddddodd",
"dd+dddyOiiii ==== ==== ====+==== ==== NNNN dddd dd",
"qq qqqt sssaO==== ==== ==== ==== ==== NNNN qqqf qq",
"    O                            o            o   ",
"-- iiiiO====O==== ==== ==== ==== ==== ==== NNNN --",
"-- iiii ====O==== ==== ==== ==== ==== ==== NNNN --",
"-- iiiiO==== ==== ==== ==== ==== ==== ==== NNNN --",
"<3 psss ==== ==== ==== ==== ==== ==== ==== NNNN 33",
"      O   O O  O                 +  #      o  o   ",
"dd 4444 ==== ==== ==== ==== ==== ====o==== NNNN dd",
"dd ---- ==== ==== ==== ==== ==== ==== ==== NNNN dd",
"dd ----O==== ====+==== ==== ==== ==== ====oNNNNodd",
"qq 3335 ==== ==== ==== ==== ==== ==== ==== NNNN 9q",
"            O      Oo      O+++O+  O        o     ",
"-- ---- ==== ==== ==== ====O==== ==== ==== NNNN --",
"-- ---- ==== ==== ==== ====O==&%O*&== ==== NNNN --",
"-- ---- ==== ==== ====O==== ==O + O== ==== NNNN --",
"33 3333 ==== ==== ==== ====+==  O+ == ==== NNNN -1",
"                   Oo +OOOO+O++ + ++++       o    ",
"-- dddd ==== ==== ====O==== ==@+++ == ==== NNNN --",
"-- dddd ==== ==== ====O====+==$$O  ==+==== NNNN --",
"-- dddd ==== ==== ====O====O==== ==== ==== NNNN --",
"33 qqqq ==== ==== ====+====O====+====+==== NNNN --",
"                       + OOOOOOO++++++     oo     ",
"-- ---- ==== ==== ==== ====O====+====o==== NNNN --",
"-- ---- ==== ==== ==== ====O==== ====o==== NNNN --",
"-- ---- ==== ==== ==== ====O====+==== ====oNNNN --",
"33 3333 ==== ==== ==== ====O====+==== ==== NNNN 2<",
"             o             +OO+++                 ",
"dd ---- ---- ddd0 ---- ddddoMbnno---- ---- ---- 0d",
"dd ---- ---- ddd0 ---- dddhonbnno---- ---- ---- dd"
};
