/* XPM */
static char *exit[] = {
/* columns rows colors chars-per-pixel */
"50 50 124 2 ",
"   c #010101",
".  c gray1",
"X  c #040404",
"o  c #080201",
"O  c #0C0301",
"+  c #140702",
"@  c #311709",
"#  c #351909",
"$  c #381B0C",
"%  c #512A12",
"&  c #542B13",
"*  c #502C12",
"=  c #542C13",
"-  c #572D14",
";  c #5A2F16",
":  c #5B2F16",
">  c #4B3412",
",  c #593016",
"<  c #5B3016",
"1  c #5F3217",
"2  c #533816",
"3  c #593B17",
"4  c #6C2C1E",
"5  c #603218",
"6  c #613318",
"7  c #004B0F",
"8  c #004D10",
"9  c #005212",
"0  c #005412",
"q  c #005613",
"w  c #005813",
"e  c #005A14",
"r  c #015A14",
"t  c #055A16",
"y  c #085917",
"u  c #095918",
"i  c #0F591A",
"p  c #185314",
"a  c #185515",
"s  c #195516",
"d  c #16571A",
"f  c #006012",
"g  c #036315",
"h  c #006D32",
"j  c #007330",
"k  c #007134",
"l  c #007636",
"z  c #0B7232",
"x  c #0D7636",
"c  c #007835",
"v  c #0B7837",
"b  c #007A39",
"n  c #007C38",
"m  c #007F3C",
"M  c #0F7B3A",
"N  c #0B7D3B",
"B  c #087F3B",
"V  c #0D7C3B",
"C  c #1F7437",
"Z  c #187B3A",
"A  c #4F4112",
"S  c #47531C",
"D  c #4B6012",
"F  c #8C0F2C",
"G  c #91102E",
"H  c #9A1232",
"J  c #9C1232",
"K  c #9E1333",
"L  c #9B1833",
"P  c #A21335",
"I  c #A41435",
"U  c #A61436",
"Y  c #922832",
"T  c #942833",
"R  c #972934",
"E  c #00B30F",
"W  c #0BAC18",
"Q  c #0BAD18",
"!  c #00B910",
"~  c #00BF11",
"^  c #00BB14",
"/  c #2AB819",
"(  c #09892E",
")  c #0D8F36",
"_  c #02813C",
"`  c #00823D",
"'  c #05803C",
"]  c #009B36",
"[  c #009F35",
"{  c #009239",
"}  c #009438",
"|  c #00BD27",
" . c #02B52B",
".. c #00C612",
"X. c #00C614",
"o. c #0AC612",
"O. c #00C812",
"+. c #00CC13",
"@. c #00CD13",
"#. c #05CF16",
"$. c #0FC31A",
"%. c #0DC619",
"&. c #00CF1A",
"*. c #00C91F",
"=. c #00CB1E",
"-. c #09CA18",
";. c #00D013",
":. c #01D315",
">. c #02D215",
",. c #00D414",
"<. c #26C515",
"1. c #00C621",
"2. c #36D03A",
"3. c #D8D8D8",
"4. c gray87",
"5. c #DFDFDF",
"6. c #E7E9E7",
"7. c #EEECEC",
"8. c #EEEEEE",
"9. c #F1F1F1",
"0. c #F4F4F4",
"q. c gray98",
"w. c #FDFDFD",
"e. c white",
/* pixels */
"` n 9 e e e e 0 w w e e 7 n ` ` ` e e e w w 0 ` ` ` ` h ;.:.:.,.q e e e e q e e e e 8 e w w e 0 n ` ",
"M x w i i i i 8 i i i y 0 M V M M 0 y i i i 0 M V M M h %.$.$.$.9 e e e t 8 t e e e q t i i u 9 z x ",
"w 0 0 9 0 9 9 w 0 9 0 9 e n h h h 0 7 7 7 7 9 b c n n ` O.! E E e 8 0 9 9 9 9 9 0 9 0 0 0 8 8 9 7 7 ",
"e e e e e e e 0 ,.,.,.,.,.` ` ` ` ` ` ` ` ` ` ` ` ` ` h [ } } } l n ` ` ] ~ &.&.,.,.E ` ` ` j 7 w e ",
"e e 0 e e e e 9 ,.,.,.,...` ` ` ` c ` ` ` ` b ` ` ` ` h ` ` ` ` l ` ` ` ] ~ | | ,.,.E ` ` ` n 8 e w ",
"e e 9 e e e e 0 ,.,.,.,.E ` ` ` ` n ` ` ` ` h ` ` ` ` k ` ` ` ` c ` ` ` } E ,.,.,.,.E ` ` ` ` 0 e t ",
"e t 9 u i u y 9 $.$.$.%.E M M M M b ` ' N ' h M x M M ` ' ' ' ' b V M M ) E #. . .:.E M M M M 0 e y ",
"e 0 e 9 0 9 0 f ;.....O.;.......E E E E E E e 9 9 9 0 0 0 0 7 7 0 ..! ....:.......O.:.........9 7 e ",
"e e 9 e e e e 0 ` ` ` } E ,.,.,.,.! ,.,.,.,.9 e w w e 0 e e e e 8 ,.*.1.,...,.,.,.1.E ,.,.,.,.0 e e ",
"e e 9 e e e e 9 ` ` ` } E ,.,.,.,...,.,.,.,.9 e e e e 7 e e e e 9 ,.1.1.,...,.,.,.1...,.,.{ ,.9 e e ",
"e e 0 e e e e 0 ` ` ` } E ,.,.:.,...:.,.,.,.0 e e w e 0 e e e e 0 ,.,.;.*...,.:.,.,...,.,.,.:.9 e e ",
"e i 9 i i i i 9 M x z ( E $.$.$.-...$.$.%.Q 0 w i t i 0 i i i e 9 :.:.:.,...,.:.,.:.@.:.:.:.:.0 g e ",
"0 9 9 0 8 8 8 0 8 8 7 7 0 @.@...o.D 6 : < < 3 < < < % < % % % ; 1 q.9.8.4.0.................:.e 0 7 ",
"` ` c ` c b n 0 e e e e 0 ,.,.,.<.% 6 6 6 6 % 1 5 6 6 - 6 6 6 5 % e.e.e.e.9.` ` ` ` m ` ` ` ` n ` n ",
"` ` b ` ` ` ` 0 e e e e 8 X.:.,.<.% 6 6 6 6 % 6 6 6 6 % 6 6 6 6 % e.e.e.e.8.` ` ` ` b ` ` ` ` n ` ` ",
"` ` b ` ` ` ` 0 e e e e 7 X.,.,.<.% 6 6 6 6 % 6 6 6 6 % 6 6 6 6 % e.e.e.e.8.` ` ` ` h ` ` ` ` b ` ` ",
"M M b M M M M 9 d i i i 0 W $.$./ % 1 6 1 6 % 6 6 6 5 % 6 1 5 5 % w.e.e.e.7.M M M M h M M M M h N N ",
"` b ` b h h h U H H H H 6 ; ; ; 1 1 ; ; < < 6 < ; ; < 5 1 ; < < 5 % % % % < q.9.3.4.0._ b b b n n b ",
"` ` h ` ` ` ` H U U U L < 6 6 6 6 % 6 6 6 6 % 6 6 6 6 % 6 6 1 6 % 6 6 6 6 - 8.e.e.e.4._ ` ` ` h ` ` ",
"` ` h ` ` ` ` H U U U L ; 6 6 6 6 % 6 6 6 6 % 6 6 6 6 % 6 6 6 6 % 6 6 6 6 % 7.e.e.e.3.` ` ` ` h ` ` ",
"` ` h ` ` ` Z H U U U U ; 6 6 6 6 % 6 6 6 6 % 6 6 6 1 % 6 6 6 6 % 5 6 6 5 % 7.e.e.e.3.` ` ` ` h ` ` ",
"M M b N M V C U R R R T ; 6 6 6 6 % 6 6 6 6 % 1 6 6 6 % 6 6 6 6 < 5 6 6 6 ; e.e.e.e.8.M M M ' h V V ",
"9 p K F F F F 1 ; ; ; ; 6 ; ; ; : 5 ; < < < 1 < ; ; 1 1 ; < < ; 6 , : < < 1 < ; ; < 1 0.3.3.4.0.9 7 ",
"e S G U U U U ; 6 6 6 6 ; 6 6 6 6 % 5 5 5 6 % 5 6 6 6 % 6 6 6 1 , 5 5 5 5 ; 6 6 5 6 ; e.e.e.e.4.e e ",
"e S F U U U U ; 6 6 6 6 ; 6 6 6 6 % 6 6 6 6 % 6 6 6 6 % 6 6 6 6 ; 5 6 6 6 < 6 6 5 5 ; e.e.e.e.3.e e ",
"e e H U U U P 1 6 6 6 6 ; 6 6 6 6 % 6 6 6 6 % 6 6 6 6 % 6 6 6 6 < 6 6 6 5 ; 6 6 6 5 - e.e.e.e.3.e e ",
"t i K Y R T T ; 6 6 6 6 ; 6 6 6 6 ; 6 6 6 6 % 6 6 6 6 % 6 6 6 6 ; 5 6 5 6 < 5 5 6 6 ; e.e.e.e.3.i i ",
"9 w P F K K P 4 ; ; ; ; 1 ; ; ; ; 1 ; ; ; < 1 < ; ; ; 1 ; ; ; ; 1 ; < < < 5 < ; 1 5 ; 8.8.8.e.3.w 0 ",
"` ` 9 a a a a 1 6 6 6 6 ; 6 6 6 6 ; 6 6 6 6 % 6 6 6 6 % 6 6 6 6 < 5 6 6 1 ; 6 6 1 6 1 e.e.e.e.3.` ` ",
"` ` 0 e w w e ; 6 6 6 6 ; 6 6 6 6 ; 6 6 6 6 % 6 6 6 6 % 6 6 6 6 < 5 6 6 5 1 6 6 5 5 ; e.e.e.e.3.` ` ",
"` ` 0 e e e e ; 6 6 6 6 ; 6 6 6 6 ; 6 6 6 6 % 6 6 6 6 % 6 6 6 6 < 1 6 6 5 1 6 6 5 5 ; e.e.e.e.3.` ` ",
"M M 9 i i i i ; 6 6 6 6 ; 6 6 6 6 ; 6 6 6 6 % 6 6 6 6 % 6 6 6 6 < 6 6 6 5 - 6 6 6 1 ; e.e.e.e.3.M M ",
"0 8 e 9 9 0 9 ; 1 ; < ; 5 < ; : < 1 : < : : 1 , ; ; 1 1 : : : : 1 : : : : 1 : : : : ; e.8.3.4.3.0 0 ",
"e e 9 e e e e 1 6 5 6 6 % 1 5 5 1 : 1 6 6 1 % 6 6 6 1 % 6 6 1 6 : 1 6 1 1 : 6 6 1 1 ; e.e.e.e.8.e e ",
"e e 0 e e e w : 6 6 6 6 % 6 6 6 6 < 6 6 6 6 % 6 6 6 6 % 6 6 # @ . $ $ 6 6 : 6 6 6 6 < e.e.e.e.8.e e ",
"e e 9 e e e e ; 6 6 6 6 % 6 6 6 1 : 6 6 6 6 % 6 6 6 6 % 6 6     . . . 6 6 : 6 6 6 6 : e.e.e.e.8.e e ",
"i i 9 i i i i ; 6 6 6 6 % 6 6 6 1 : 6 6 6 6 % 6 6 6 6 % 6 6 . . .     6 6 : 1 6 5 1 - e.e.e.e.8.e t ",
"9 0 e 0 7 7 9 2 % % % % < - % % % 1 % % % % : : % % % 1 % ; X X X . . % : 6 : : < ; ; 8.8.8.w.8.0 8 ",
"e e 0 ` n n c 1 6 6 6 6 % 6 6 6 6 1 6 6 6 6 * 6 6 6 6 % 6 6 O X X     6 6 : 6 6 5 6 ; e.e.e.e.8.e e ",
"e e 9 ` ` ` ` : 6 6 6 6 % 6 6 6 1 : 6 6 6 6 % 6 6 6 6 % 6 6 + + . .   6 6 : 6 6 6 6 ; e.e.e.e.8.e e ",
"e e 9 ` ` ` ` < 6 6 6 6 % 6 6 6 6 < 1 6 6 6 % 6 6 6 6 % 6 6 6 6 < 6 6 6 5 < 6 5 6 6 ; e.e.e.e.8.e e ",
"i i 0 M M M x < 6 6 6 5 % 6 6 6 1 : 6 6 6 6 % 1 6 6 6 % 6 6 6 6 % 6 6 5 6 < 6 1 6 6 ; e.e.e.e.8.e e ",
"9 8 e 9 9 9 8 < 6 < ; < 6 < < ; : 1 : : < : 1 < < : < 1 < < < < 5 < < ; < 1 < < < < ; 8.4.3.8.8.e 0 ",
"e e 9 e e e w < 6 6 5 6 % 6 6 5 6 < 1 6 6 6 % 1 6 1 6 % 6 1 6 6 < 5 6 6 5 ; 6 6 5 6 ; e.e.e.e.8.e e ",
"e e 9 e e e e < 6 6 6 6 % 6 6 6 6 : 6 6 6 6 % 6 6 6 6 % 6 6 6 6 ; 6 6 6 6 % 6 6 6 5 ; e.e.e.e.8.e e ",
"e e 9 e e w e < 6 6 6 6 % 6 6 6 6 : 6 6 6 6 % 6 6 6 6 - 6 6 6 6 ; 5 6 6 1 % 6 6 6 5 : e.e.e.e.8.e e ",
"i i 9 i i i i ; 6 6 5 6 % 1 6 6 1 1 6 6 6 6 - 6 6 6 6 : 6 6 6 6 < 6 6 6 6 5 6 6 6 6 < e.e.e.e.9.u t ",
"w 0 e 9 9 0 9 1 ; < ; ; ; ; ; < : : % % % % % % % % > A % % % * > % % % % % % % % % 1 8.8.8.8.6.0 8 ",
"` ` 0 e e e e 0 e e e e e ` ` ` n 0 e e e e e ` ` ` } @.2.:.,.! 9 w e e e w e e e e 7 e e e e w n n ",
"` ` w e e e e 7 e e e e 9 ` ` ` c 8 e e e e 7 n ` ` { E ,.,.,.,.7 e e e e 8 e e e e 0 e e e e 8 n ` "
};
