/* XPM */
static char *fantome_v_01[] = {
/* columns rows colors chars-per-pixel */
"50 50 117 2 ",
"   c #003000",
".  c #003800",
"X  c #003E00",
"o  c #003F01",
"O  c #4F0A1A",
"+  c #4D161B",
"@  c #4E181B",
"#  c #4C1A1B",
"$  c #4C1D1C",
"%  c #44231B",
"&  c #49251D",
"*  c #4A261D",
"=  c #4B2C1F",
"-  c #4A2D1F",
";  c #004100",
":  c #034500",
">  c #004204",
",  c #004B00",
"<  c #044F0A",
"1  c #034E0F",
"2  c #164500",
"3  c #124B12",
"4  c #075212",
"5  c #005710",
"6  c #015513",
"7  c #095516",
"8  c #0B5417",
"9  c #085616",
"0  c #005A14",
"q  c #015A14",
"w  c #025A15",
"e  c #035A15",
"r  c #075816",
"t  c #085917",
"y  c #0B5518",
"u  c #0C5718",
"i  c #075A18",
"p  c #0A5918",
"a  c #0F5818",
"s  c #0F591A",
"d  c #145311",
"f  c #185515",
"g  c #195516",
"h  c #13551B",
"j  c #16571D",
"k  c #11581B",
"l  c #13581C",
"z  c #16581D",
"x  c #036315",
"c  c #066123",
"v  c #027230",
"b  c #057131",
"n  c #037532",
"m  c #007633",
"M  c #067432",
"N  c #007734",
"B  c #0B7232",
"V  c #0D7535",
"C  c #0D7636",
"Z  c #007835",
"A  c #027C37",
"S  c #007C38",
"D  c #027C38",
"F  c #027E3A",
"G  c #067F3B",
"H  c #057F3C",
"J  c #077F3C",
"K  c #0F7B3A",
"L  c #097C3A",
"P  c #097D3B",
"I  c #0A7E3B",
"U  c #0C7D3B",
"Y  c #0E7C3A",
"T  c #1F7437",
"R  c #187B3A",
"E  c #881700",
"W  c #961A00",
"Q  c #9C1C00",
"!  c #9F1D00",
"~  c #A11D00",
"^  c #A61436",
"/  c #A61536",
"(  c #8D2B31",
")  c #972934",
"_  c #019F0C",
"`  c #08B415",
"'  c #01BA11",
"]  c #13B71B",
"[  c #16B61D",
"{  c #00823D",
"}  c #05803C",
"|  c #04813C",
" . c #00843C",
".. c #009239",
"X. c #00BD27",
"o. c #02B52B",
"O. c #01B62B",
"+. c #00C112",
"@. c #01C512",
"#. c #00CE13",
"$. c #01CF15",
"%. c #06CC16",
"&. c #05CF16",
"*. c #09CB17",
"=. c #0BC118",
"-. c #0FC31A",
";. c #0AC618",
":. c #0CC719",
">. c #00CF1A",
",. c #03D015",
"<. c #00D314",
"1. c #01D315",
"2. c #00D414",
"3. c #02C422",
"4. c #1EC424",
"5. c #36D03A",
"6. c #004BFF",
/* pixels */
"{ S t 0 0 0 0 r 0 0 0 0 p { { { { r 0 0 0 0 r { { { { 1.1.1.<.<.:.0 0 0 0 h 0 0 0 0 t 0 0 0 0 0 A { ",
"K C z k s s s p k u k p s U K K K j s s s s y U U K C ` -.-.-.-.:.0 0 0 0 t r 0 0 0 t r s s s r C U ",
"r r k 0 p r r 2.] *.:.;.1.I I L L , : : : : , , , , : , X X X X , 8 h h t 1.&.$.1.1.<.r r t k r r t ",
"0 0 l 0 0 0 0 *.2.2.2.2.:.{ { { { X 6.6.6.6., 6.6.6.6.: 6.6.6.6.X { { { { 1.>.>.<.2.1. .{ { Z 0 0 0 ",
"0 0 l 0 0 0 0 :.2.2.2.2.:.{ { { { X 6.6.6.6., 6.6.6.6.: 6.6.6.6.X { { { { 1.X.X.<.<.1.{ { { { t 0 0 ",
"0 0 s 0 0 0 0 :.2.2.2.2.:.{ { { { X 6.6.6.6., 6.6.6.6.: 6.6.6.6.: { { { { 1.2.2.2.2.1.{ { { { 0 0 0 ",
"0 r s p k p p :.-.-.-.-.=.K K K K X 6.6.6.6., 6.6.6.6.: 6.6.6.6.: I K U K ' &.o.o.1.,.K K K K 0 0 r ",
"p s k 0 r 0 0 1.;.;.;.` , X X X X : ; X X X , X : : : , : : : : , : : : ; , #.1.1.1.1.1.1.$.&.1.t h ",
"0 0 r 0 0 0 0 r { { { { : 6.6.6.6.X 6.6.6.6., 6.6.6.6.: 6.6.6.6.: 6.6.6.6.: 2.2.2.3.3.2.1.1.1.1.0 0 ",
"0 0 z 0 0 0 0 t { { { { : 6.6.6.6.X 6.6.6.6., 6.6.6.6.: 6.6.6.6.: 6.6.6.6.: 2.2.2.3.3.<.2...1.1.0 0 ",
"0 0 z 0 0 0 0 s { { { { : 6.6.6.6.X 6.6.6.6., 6.6.6.6.: 6.6.6.6.: 6.6.6.6.: 2.2.2.2...<.2.2.1.1.0 0 ",
"0 s z s s s s 8 U C B B : 6.6.6.6.X 6.6.6.6., 6.6.6.6.: 6.6.6.6.: 6.6.6.6.: _ @.2.2.+.&.1.1.1.1.x r ",
"0 t 0 0 0 r 0 , : X X X , X X X X , X X : : , : : : : , : : : : , : : : : , . X : : , $.2.o.o.1.r r ",
"{ { | { {  .{ , 6.6.6.6.: 6.6.6.6.: 6.6.6.6., 6.6.6.6.: 6.6.6.6.: 6.6.6.6.: 6.6.6.6.: { { { { { { { ",
"{ { I { { { { , 6.6.6.6.: 6.6.6.6.: 6.6.6.6., 6.6.6.6.: 6.6.6.6.: 6.6.6.6.: 6.6.6.6.: { { { { I { { ",
"{ { U { { { { , 6.6.6.6.: 6.6.6.6.: 6.6.6.6., 6.6.6.6.: 6.6.6.6.: 6.6.6.6.: 6.6.6.6.: { { { { U { { ",
"K K K U K K K , 6.6.6.6.: 6.6.6.6.: 6.6.6.6., 6.6.6.6.: 6.6.6.6.: 6.6.6.6.: 6.6.6.6.: U K K K U I I ",
"} { { { { { S , , X X X , X X X X , X X X X , X X X X , X X X X , X X X   ,         , S H { { { I  .",
"{ { K  .{ { { , 6.6.6.6.; 6.6.6.6.: ~ ~ ~ ~ , 6.6.6.6.: ~ ~ ~ ~ : 6.6.6.6.: 6.6.6.6., { { { { I { { ",
"{ { U { { { { , 6.6.6.6.: 6.6.6.6.: ~ ~ ~ ~ , 6.6.6.6.: ~ ~ ~ ~ : 6.6.6.6.: 6.6.6.6., { { { { U { { ",
"{ { I { { { R , 6.6.6.6.: 6.6.6.6.: ~ ~ ~ ~ , 6.6.6.6.: ~ ~ ~ ~ X 6.6.6.6.: 6.6.6.6., S  .{ { H { { ",
"K K { U K U T , 6.6.6.6.: 6.6.6.6.: ~ ~ ~ ~ , 6.6.6.6.: ~ ~ ~ ~ X 6.6.6.6.: 6.6.6.6., C K K H { K K ",
"r 8 O = O @ & , : : ; : , : : ; : 2 Q W W W , : : , : : ! W W E , : ; X X , ; X X X , b I I H i h h ",
"0 0 + ^ ^ ^ ^ , 6.6.6.6.: 6.6.6.6.: ! ~ ~ ~ , 6.6.6.6.: ~ ~ ~ ~ : 6.6.6.6.X 6.6.6.6.X S { { { l 0 0 ",
"0 0 - ^ ^ ^ ^ , 6.6.6.6.: 6.6.6.6.: ~ ~ ~ ~ , 6.6.6.6.: ! ~ ~ ~ X 6.6.6.6.X 6.6.6.6.X S { { { z 0 0 ",
"0 0 $ ^ ^ ^ ^ , 6.6.6.6.: 6.6.6.6.: ~ ~ ~ ~ , 6.6.6.6.: ~ ~ ~ ~ X 6.6.6.6.X 6.6.6.6.; S { { { z 0 0 ",
"r s - ( ) ) ) , 6.6.6.6.: 6.6.6.6.: ! ! ~ ~ , 6.6.6.6.; ! ! ~ ~ X 6.6.6.6.X 6.6.6.6.X Z K K U h u s ",
"r z + * @ $ % , : : : : , : : : : , : : : : , : : : : , : : : : , : : : : , : ; : : , n I U } t 8 0 ",
"{ { s g f g d , 6.6.6.6.: 6.6.6.6.: 6.6.6.6., 6.6.6.6.: 6.6.6.6.X 6.6.6.6.X 6.6.6.6.> G { { { { { { ",
"{  .s 0 0 0 0 , 6.6.6.6.: 6.6.6.6.: 6.6.6.6., 6.6.6.6.: 6.6.6.6.X 6.6.6.6.X 6.6.6.6.> Z { { { I {  .",
"{ { t 0 0 0 0 , 6.6.6.6.: 6.6.6.6.: 6.6.6.6., 6.6.6.6.: 6.6.6.6.X 6.6.6.6.X 6.6.6.6.; S { { { G { { ",
"K K s s s k 8 , 6.6.6.6.: 6.6.6.6.: 6.6.6.6., 6.6.6.6.: 6.6.6.6.X 6.6.6.6.X 6.6.6.6.X C K K K A C U ",
"0 r 0 r t 0 1 , ; X X X , X X X X , X X X X , X X X X , X X X X : ; X X X : ; X X X , v | L S s h 0 ",
"0 0 t 0 0 0 5 , 6.6.6.6.: 6.6.6.6.: 6.6.6.6., 6.6.6.6.: 6.6.6.6.: 6.6.6.6.; 6.6.6.6., n { { { z 0 0 ",
"0 0 k 0 0 0 0 , 6.6.6.6.: 6.6.6.6.: 6.6.6.6., 6.6.6.6.; 6.6.6.6.: 6.6.6.6.X 6.6.6.6., N { { { z 0 0 ",
"0 0 s 0 0 0 0 , 6.6.6.6.: 6.6.6.6.: 6.6.6.6., 6.6.6.6.: 6.6.6.6.: 6.6.6.6.X 6.6.6.6.: n { { { s 0 0 ",
"s s k k k s 8 , 6.6.6.6.: 6.6.6.6.: 6.6.6.6., 6.6.6.6.: 6.6.6.6.: 6.6.6.6.X 6.6.6.6.: n U { U u 0 r ",
"0 t 0 t t r 4 , X X X X , X X X X , X X X X , ; X X X , X X X X , ; X X X : ; X X ; , b I K I k 0 s ",
"0 0 a {  .{ N , 6.6.6.6.: 6.6.6.6.: 6.6.6.6., 6.6.6.6.X 6.6.6.6.: 6.6.6.6.X 6.6.6.6.X N { { { t 0 0 ",
"0 0 p { { { Z , 6.6.6.6.: 6.6.6.6.: 6.6.6.6., 6.6.6.6.X 6.6.6.6.: 6.6.6.6.X 6.6.6.6.X n { { { t 0 0 ",
"0 0 s  .{ { Z , 6.6.6.6.: 6.6.6.6.: 6.6.6.6., 6.6.6.6.X 6.6.6.6.: 6.6.6.6.X 6.6.6.6.; Z { { { s 0 0 ",
"s k t Y K U c , 6.6.6.6.: 6.6.6.6.: 6.6.6.6., 6.6.6.6.; 6.6.6.6.: 6.6.6.6.; 6.6.6.6.; M } K K t r 0 ",
"h t 0 8 k t < , , , , , , , , , , , , , , , , , , , , , , , , , , , , , , , , , , , , v G G I t t t ",
"0 0 k 0 0 0 0 u 0 0 0 0 : 6.6.6.6.: 6.6.6.6., 0 0 0 0 X 6.6.6.6.: 6.6.6.6.X { { { { S { { { { k 0 0 ",
"0 0 s 0 0 0 0 t 0 0 0 0 : 6.6.6.6.: 6.6.6.6., 0 0 0 5 X 6.6.6.6.: 6.6.6.6.: { { { { } { { { { s 0 0 ",
"0 0 s 0 0 0 0 p 0 0 0 0 : 6.6.6.6.: 6.6.6.6., 0 0 0 5 X 6.6.6.6.: 6.6.6.6.: { { { { U  .{ { { t 0 0 ",
"s k t s k k s s s s s s ; 6.6.6.6.: 6.6.6.6., u u 0 u ; 6.6.6.6.: 6.6.6.6.: { } { A A C C C C t t t ",
"0 8 0 t r 8 t s t t 8 8 , , , , : , X X X X , h j j 5 3 X X X X , X : : : , 5 0 0 r 0 r 0 8 0 0 0 0 ",
" .{ 0 0 0 0 0 r 0 0 e e e  .{ { A z 0 0 0 0 z { { {  .4.5.2.2.2.[ 0 0 0 0 8 0 0 0 0 s 0 0 0 0 0 A { ",
"{ { 0 0 0 0 0 0 e 0 0 0 0 { { { A 0 0 0 0 0 r { { { ..2.2.<.2.2.*.0 0 0 0 h 0 0 0 0 t 0 0 0 0 0 { { "
};
