/* XPM */
static char *floor[] = {
/* columns rows colors chars-per-pixel */
"50 50 18 1 ",
"  c #3F4140",
". c #444644",
"X c #484746",
"o c #464946",
"O c #494A47",
"+ c #454749",
"@ c #464C49",
"# c #4A4D4A",
"$ c #504F4C",
"% c #4D514D",
"& c #50514E",
"* c #4E5351",
"= c #525552",
"- c #555956",
"; c #5A5955",
": c #565958",
"> c #5A5B58",
", c #66635F",
/* pixels */
"X. X .X.OOOOOOOO$.O#ooOo%%oOooOOo%OO#OOOOO.O. X  X",
".....XX.OOO$OOoO%o##oooO#OOoooO&o%OoOOOOOOOOX X..O",
".##.X#XX$#OOOO.##o#O%%#%#%%%%%OOO#%oOoOOO$.O#XX## ",
"..#.=#XX;=.OOOO$#o#%%@%%oo%OO%%%o#%OooO.;;O.$= #X.",
"#+XX&X=#%$,OOoOoOO@@###o--o%%O@%oOOOoOo,$$$&O&XOX#",
"$.X#XXX.oO==Ooo%%Ooo##%@%%o%%oooO%%oo#==O..OOO#O.&",
"+#&#$$X.oOO%oO@%%ooooo%%%%%%oooooO%oOo%#Oo O$&O&#.",
".+X#&#X#@o%oO;%%ooo#ooo%%%@ooo%oo.%#;O#%.O$O#&OOX.",
".X##oXX%##o;=%@O%@%%@@@@oo@@@o%%@%O#%=;o##%OO.O#oX",
" +XXo%&X#=#-&%OO@@%@@@@@ooo@@@%%@@OO%&=#&%.&#XOoX ",
".++X.X&#%&X#%%@#@%@@@o@@oo%@oo%@%%#@%%#O&%O&#XOo+ ",
"+++$X.o&O#.%o@#o%%@@oo@@%%%ooo@o#%@@oo%o#O&O.X#O.+",
".X#X.+%.##.##oo#%-@@%@@%@@%oo%oo*%@o@@#.#%.%OooO#.",
"..X+Xo#OOX@O@@%#@-%%%*@o@@o@-@%%>@%%O@@oXOO#OOoo..",
".XX##.XX#o#OO@@#@@@%@@@@@@@o@@%@@%#O@@##@%XOOO#OX.",
".+##.#X.#%@%=#o#@@@@%o@*@@%@o%o@@O#o#=%@OO.XOOO%oX",
"OO%OOOOo@o@%%o@o@@%%@@@@@@@@@@@*%oo@@@##@@@@OoOOOO",
"oO&;o%%%oo%@oo@@%@@@@%@@oo@@%@@@@%@@@@@%oo@%%o;$Oo",
"&OO&OO%o%%%@@%%o%@@@**@@@%@%**@@@%@%%@@%%&@#oO#$O&",
"OoOOOoOO%%%o%@%o*%%@-%%%@@*%@-@%%*@%%@@%#%#Ooo$o.%",
"OooOooo%o%%%-%%-@%%@@@@*@@*@@%@*%@-%%=#@#o#ooO$o.X",
"O&OO%oo&@%%o-%%%%%@%*%@%%@@@**@@%%%o*>@%%#&oO%oO&.",
"O$%Oo%%%%%o@%%%%@%*%%*%%*%%%*%**%%@%%%##%%#O%O$$#O",
"%&&&%%%@%@%%o%%-*%--@-%%**%*-@*-%%-@%%%%o=o-&O%%&%",
"O$>&%OoO@@-%@@%%@@--*****%**%*--% -*@@*-oOOX##&>&O",
"O$;&%OOO@@-%@@%%@@*-%*******%*-* @**@@%=o##oX$&>$O",
"O&&&O&&O%@%%%%%-**-*@***%**%*@*-%%-#*#*%@%X==X$&=$",
"O$$OO%&O%%@%%%@@@@*%**@%%*@%-%%*%##@%%#@%=##$X###O",
"o$OO%OO%@%%@-*@***@@*%@@@@@%%*%@%%%@*-#%%@%oX#oO$.",
"ooO#Ooo%@%@%-***@**@%@%%%@*@@%@%%@-%%=%O%o#@X##oXX",
"OoO%OoOO%@%@@%*@*%%@-@*@@%@%%-@*%*@*%#@%%%OOXX##.#",
"&o#%OO%O*@%@@%@@%%@@**%@**@%%*@@@%@@%@@%#&O%####X&",
"oO$;o#$#@.%OOo@@@@@@%%@@oooo%@@@@@@@o@%%ooo%%o;%O.",
"OO$OOOOO#o%#%o@o@%%@@@@@@o@@@@@%%@@@o%%oo@%oooOOOO",
"oO%OOOOo#%o%=#o#@@@o%o@@@@@@@%@@@@%o%%%o%oooOoO%OO",
"ooOOOoOO@@#Oo#o#%@@%@@o@@@@@@@%@@@@@@oo%o%ooo%OO..",
"o.OOOoOOooOoo@%%@-*%%*oo@@@@*@%%-@%%@@ooOOOOOooo..",
".OOOoo#o%Oo%#oo@%*@@%@o%@%%@@%@@*%%@@@%o%OO%OooOO.",
"o.oOO.O&O%o%o@@@%@o@oo@%*%%@oo@@%%@@@@%@%O&OOOOO.o",
" oOO.O$O%%##%%@#%%@@oo@%@@@@oo@@*@@@@%@@%%O$ooooO ",
" ooOO#$O%&O-&%OO#o%%oooo@@o@@@#%O##o%&-O%&o&$oooo ",
"OO##oOO$%Oo;=%#OOo%%oo@o@o@@@o%%@%Oo%&;o%O#OOoOOOo",
"o.O#&#.$Oo%oO-%%ooo%@oo%%%%ooo%ooo$#=$O&oo$o&&OOoo",
".O%O$$O oOO#ooo%%ooooo=%#%%%ooo@o#%o#o%#Oo O&&O&Oo",
"&.O#OOOOOO=&#oo%%OooO%%O%%o#%@ooo%%o.O&=OO.OOoOO $",
"#.XX&O&$$$,oOoooOo#@O%Oo--o#%@@Oo#oO.OO,$$$$O&OOOO",
".X#.&$OO;=OOooO&#o%%%o%%oo%#O%%%o#%OoOOO&;OO$& $OO",
".##.OOOO$OoOooOO%oOo%&%O%#%%$%oOOO%Oo.OO#$OOOOOOO.",
".... XXXXOX##XXO#O##ooOO###oooO%o%oOOOOOOOOOO ...O",
"X  # .X.XO#XX$O#%.O#@OOo##oooO%Oo%Oo%oo$OO.O. O  O"
};
