/* XPM */
static char *herbe_v2[] = {
/* columns rows colors chars-per-pixel */
"50 50 75 1 ",
"  c #4F0B1A",
". c #4D151B",
"X c #4D1B1C",
"o c #4B241D",
"O c #4A2C1F",
"+ c #492F20",
"@ c #493121",
"# c #483A23",
"$ c #015A14",
"% c #095817",
"& c #0D5718",
"* c #075A18",
"= c #0D5919",
"- c #185515",
"; c #13551B",
": c #15581D",
"> c #036315",
", c #037634",
"< c #0C7635",
"1 c #037B37",
"2 c #097836",
"3 c #027D39",
"4 c #0D7C3A",
"5 c #137336",
"6 c #1F7437",
"7 c #157638",
"8 c #147D3B",
"9 c #197B3A",
"0 c #697669",
"q c #9D1433",
"w c #9B1933",
"e c #A61436",
"r c #A41C36",
"t c #8E2631",
"y c #8D2B31",
"u c #972934",
"i c #13B71B",
"p c #16B81D",
"a c #00823D",
"s c #009239",
"d c #00AD2F",
"f c #00BD27",
"g c #01B62B",
"h c #06CE16",
"j c #08C917",
"k c #0CC619",
"l c #00CD1C",
"z c #0AC918",
"x c #01D314",
"c c #01C621",
"v c #1EC424",
"b c #36D03A",
"n c #298449",
"m c #778077",
"M c #7B837B",
"N c #CECC72",
"B c #818781",
"V c #858B85",
"C c #898E89",
"Z c #8C918C",
"A c #929592",
"S c #969996",
"D c #E2E486",
"F c #E9EB82",
"G c #F2F186",
"H c #FEFE8E",
"J c #EFEF93",
"K c #F5F591",
"L c #D9DBD9",
"P c #DFE1DF",
"I c #E2E4E2",
"U c #E7E9E7",
"Y c #E8EAE8",
"T c #F7F7F7",
"R c #FFFFFF",
/* pixels */
"a3%$$$$$$$$$%aaaa$$$$$&aaaaxxxxxk$$$$:$$$$%$$$$$3a",
"4<:==;=======4448:=====8445zkkkkk$$$$*$$$$=$===$<8",
"%$;$=$*xizkzx4343$%%&&$55<2xkkkkx=;:*xxxhxx$*%:$$&",
"$$:$$$$jxxxxzaaaa4aaaaaaaaaaaaaaaaaaaxllxxxaaa,$$$",
"$$;$$$$zxxxxzaaaa8aaaaaaaaa8aaaa4aaaahfcxxxaaaa$$$",
"$$=$$$$kxxxxkaaaa4aaaa4aaaaaaaaa4aaaaxxxxxxaaaa$$$",
"$*:*;%%zkkkkk88<4aa3aaa<58<aa3aa44484xxggxx8444$$$",
"*=;$$$$xkkkzxxxxxxkzkzh=&%%$&%%%xxxxxxxxxxxxxhhx&;",
"$$$$$$$$aaaaxxxxxzxxxxp$$$$%$$$$xxccxxxxxccxxxxx$$",
"$$:$$$$*aaaaxxxxxkxxxxp$$$$=$$$$xxccxlxxxccxxsxx$$",
"$$:$$$$=aaaaxxxxxpxxxxk$$$$=$$$$xxxxcdxxxxsxxxxx$$",
"$=;:===*<<<<hkkkkpkkkzk$=$=====$xxxxxxxxxxxxxxxx>$",
"$*$$$$$$$$$%xjjjjhjzjjx$*$=$&%%$xxxxxxxxxxxxxggx%%",
"aaaaaaa=$$$$zxxxxpaaaa$$$$$=aaa,=$$$$=aaaa4aaaaaaa",
"aaaaaaa=$$$$kxxxxpaaaa*$$$$*aaaa=$$$$%aaaa4aaaaaaa",
"aa8aaaa=$$$$zxxxxpaaaa=$$$$=aaaa%$$$$=aaaa4aaaa4aa",
"<84848<=:==;kkkkzp<<<<=====%8848%===;=4848a4<844a4",
"aaaaaaaoO.Xoohkkjh%;;;$;;;;$a322%-;;*$%%%$$aaaaa4a",
"aa3aaaa.eeewX9aaa=$$$$$aaaa4aaaaaaaaa=$$$$:aaaa8aa",
"aa4aaaaXeeeqo8aaa*$$$$$aaaa4aaaaaaaaa=$$$$:aaaaaaa",
"aa3aaa9+eeee.3aaa*$$$$$aaaa4aaaa4aaaa=$$$$=aaaa4aa",
"84a8886ouuuuX4448$$%==$84443444444448===;==<48aa<8",
"$$ O .OX....oo.@Xo$=&-$3755$&&=:*a7<2;$%%;=a34a%=;",
"$$.eeee.FGGGXeeeeo$$$$%aaa3:$$$$%aaa1:$$$$=aaaa:$$",
"$$+eeee.HHHG@eeee.$$$$=aaa3:$$$$=aaa1:$$$$=aaaa:$$",
"$$Xeeee.HHHGoeeee.$$$$=aaa3:$$$$=aaa3:$$$$=aaaa:$$",
"$=+tuuu.FFFN.tuuuo$===%<48<:==&==4341:;;==%a88<:==",
"%-.oXX+o OOO#.XOXo%=;;$:%%*$&&&$=4aa1$=%;;=133a=%$",
"aa=----.eerq.aaaaaaaaa=$$$$*$$$$=aaaaaaaaaaaaaaaaa",
"aa=$$$$.eeew@aaaa4aaaa*$$$$*$$$$$aaaa7aaaa3aaaaaaa",
"aa=$$$$.eeeqoaaaa3aaa1:$$$$*$$$$%,aaa7aaaa8aaaaaaa",
"84====;Oyuuto8<487848<:===$%=;==%<8a8a3aaaa88<81<4",
"$$$$$$%XXOo.O$%%%$a342%%%%*MAAV0B4aa,$$=%%*133a=&$",
"$$&$$$$$$$$$%$$$$=aaaaaaaa3ZRTTRCaaaa:$$$$:1aaa:$$",
"$$=$$$$=$$$$%$$$$%aaaa4aaaaMRRRRAaaaa:$$$$;1aaa:$$",
"$$=$$$$=$$$$=$$$$=aaaa4aaanVRRRTVaaaa:$$$$:1aaa=$$",
"====;======:==;=;=48484448nAYYYYB8844:=;$=:34a8=$$",
"$=$%%%%$%%%*$%%=%$344amVmmMVBCVBABBMCC$%&$:3433=$=",
"$$%aaaa=$$$$=$$$$%aaaaZRTTTZKHKJBTRRTm$$$$:1aaa;$$",
"$$=aaaa=$$$$=$$$$=aaaaVRRRRmKHHHZTRRRm$$$$:1aaa%$$",
"$$%aaaa=$$$$=$$$$=aaaaVRRRRMKHHHZTRRRV$$$$:1aaa%$$",
"===8844==========%4844CLIILBDFFNZLIIPS$===:2a78*$$",
"-%$%%%%$%%%%$%=%%$%&%%0MmmMSVVVVSVVAZS&-=%$33a4$$=",
"$$%$$$$=$$$$=aaaa$$$$$%$$$$CRRRRVaaaaaaaaaaaaaa=$$",
"$$%$$$$=$$$$=aaaa$$$$$%$$$$VRRRRVaaaaaaaaaaaaaa;$$",
"$$=$$$$=$$$$=aaaa$$$$$%$$$$VRRRRVaaaaaaaaa8aaaa=$$",
";=%=========;4488$%===%==$=VYYUIm848<aaaa13<<<<**$",
"$%$=%%%=&%%%*4343$;;:&%;:;$SmVVVV$$$$%$$$$%$$$$$$$",
"aa$$$$$$$$$$$aaaa:$$$$:aaaavbxxxp$$$$%$$$$%$$$$$1a",
"aa$$$$$$$$$$$aaa1$$$$$$aaasxxxxxj$$$$;$$$$%$$$$$aa"
};
